<?xml version="1.0" encoding="utf-8"?>
<!-- Generator: Adobe Illustrator 23.0.1, SVG Export Plug-In . SVG Version: 6.00 Build 0)  -->
<svg version="1.1" id="Layer_1" xmlns="http://www.w3.org/2000/svg" xmlns:xlink="http://www.w3.org/1999/xlink" x="0px" y="0px"
	 viewBox="0 0 400 200" style="enable-background:new 0 0 400 200;" xml:space="preserve">
<style type="text/css">
	.st0{fill:#FFFFFF;}
</style>
<g>
	<g>
		<path class="st0" d="M39.1,15.9c0,3.4,0,5-0.1,8.4c-10.3-2.6-15.1-4-24.2-6.6c0,17-0.1,34-0.1,51c6,0.5,9.1,0.8,15.7,1.3
			c0,3.5,0,5.2,0,8.7c-6.6-0.3-9.7-0.4-15.7-0.7c0,21.3-0.1,42.6-0.1,63.9c8.8-2,13.5-3,23.7-4.8c0,3.4,0,5-0.1,8.4
			c-10.2,2.3-20.4,4.7-30.5,7.5c0-48.9,0-97.8,0-146.8C18.1,9.6,28.6,12.7,39.1,15.9z"/>
		<path class="st0" d="M45.7,143.7c-1.8,0.4-2.7,0.5-4.4,0.9c6.8-21,14.1-41.8,22.2-62.3c-7.1-21.5-13.6-43.2-19.6-65
			c4,1.1,6,1.7,10.1,2.8c4.8,16.2,9.7,32.3,15.2,48.3C75.3,54.7,81.4,41.4,88,28.1c2.1,0.4,3.1,0.7,5.2,1.1
			c-7.8,14.9-14.8,30.2-21.6,45.6c7.5,20.7,15.7,40.9,24.8,61c-4.9,0.5-7.3,0.8-12.1,1.5c-6.8-15.9-12.8-32.1-18.5-48.4
			C58.4,106.9,51.8,125.2,45.7,143.7z"/>
		<path class="st0" d="M104.4,31.4c7.7,1.4,11.6,2.1,19.6,3.4c3.3,0.5,6.5,1.6,9.5,3.2c3,1.6,5.6,3.7,7.9,6.3
			c2.3,2.6,4.1,5.6,5.5,9.1c1.4,3.5,2.1,7.4,2.2,11.7c0.1,4.3-0.4,7.9-1.6,11c-1.2,3.1-2.8,5.6-4.9,7.6c-2,2-4.4,3.5-7,4.4
			c-2.6,0.9-5.2,1.4-7.9,1.3c-1.2,0-2.3-0.1-3.6-0.2c-1.2-0.1-2.4-0.3-3.6-0.5c-1.1-0.2-2.2-0.4-3.1-0.6c-1-0.2-1.7-0.5-2.4-0.7
			c0.1,15.5,0.3,31.1,0.4,46.6c-4.3,0.3-6.5,0.5-10.7,0.9C104.7,100.4,104.6,65.9,104.4,31.4z M115.1,81.7c1.2,0.7,2.5,1.3,3.9,1.8
			c1.4,0.5,2.8,0.8,4.3,0.8c2.3,0.1,4.4-0.3,6.2-1.3c1.8-1,3.2-2.3,4.4-4.1c1.2-1.8,2-3.8,2.6-6.2c0.5-2.4,0.8-5,0.7-7.7
			c-0.1-3.2-0.5-6.2-1.3-8.9c-0.8-2.7-1.9-5.1-3.2-7.1c-1.4-2-2.9-3.7-4.7-5c-1.8-1.3-3.7-2.1-5.6-2.3c-3-0.4-4.5-0.7-7.5-1.1
			C114.9,54.3,115,68,115.1,81.7z"/>
		<path class="st0" d="M162.1,39.7c4.6,0.5,6.9,0.7,11.7,1.1c1.1,28.6,2.2,57.2,3.3,85.9c12.5,0.5,25,1.3,37.5,2.5
			c0.1,2.4,0.2,3.6,0.3,6c-16.6-1.7-33.2-2.6-49.9-2.8C164.1,101.5,163.1,70.6,162.1,39.7z"/>
		<path class="st0" d="M261.1,144c-5.1-1-10.1-3.2-14.9-6.5c-4.8-3.4-9.1-7.5-12.9-12.4c-3.8-4.9-6.9-10.4-9.2-16.6
			s-3.8-12.6-4.2-19.3c-0.3-4.4-0.1-8.7,0.6-12.7c0.7-4.1,1.7-7.8,3.2-11.3c1.4-3.5,3.2-6.7,5.4-9.6c2.1-2.9,4.5-5.4,7.1-7.5
			c2.6-2.1,5.5-3.8,8.6-5c3.1-1.2,6.3-1.9,9.7-2c3.4-0.1,6.7,0.4,9.8,1.5c3.1,1.1,6,2.7,8.8,4.9c2.7,2.2,5.2,4.9,7.5,8.2
			s4.3,6.9,6,11c1.7,4.1,3.1,8.5,4.2,13.3c1.1,4.8,1.7,9.8,2,14.9c0.3,5.3,0.2,10.3-0.3,15c-0.5,4.7-1.3,9.1-2.5,13
			c-1.2,3.9-2.7,7.4-4.6,10.4c-1.9,3-4,5.4-6.4,7.2c-2.4,1.8-5.2,3.1-8.1,3.7S264.5,144.7,261.1,144z M260.7,139.1
			c3.8,0.7,7,0.1,9.7-1.7c2.7-1.9,4.9-4.8,6.5-8.9c1.6-4.1,2.7-9.1,3.3-15c0.6-5.9,0.7-12.5,0.2-19.8c-0.4-7.2-1.3-13.8-2.7-19.8
			c-1.3-6-3.1-11.1-5.3-15.3s-4.8-7.5-7.7-9.7s-6.3-3.3-10.1-3.2c-3.8,0.1-7.2,1.3-10,3.5c-2.8,2.2-5.1,5.3-6.9,9.2
			c-1.8,3.9-3,8.5-3.7,13.9c-0.7,5.4-0.9,11.3-0.5,17.8c0.4,6.5,1.3,12.6,2.7,18.2c1.4,5.6,3.3,10.6,5.6,14.9
			c2.3,4.3,5.1,7.9,8.2,10.6C253.3,136.7,256.9,138.4,260.7,139.1z"/>
		<path class="st0" d="M303.1,40.2c8.2-0.8,12.1-1.2,19.8-2.2c3.3-0.4,6.2,0,8.7,1.3c2.5,1.3,4.6,3.3,6.3,6c1.7,2.8,3,6.2,3.9,10.2
			c0.9,4.1,1.5,8.5,1.7,13.4c0.1,4,0,7.8-0.5,11.3c-0.5,3.5-1.2,6.6-2.2,9.4c-1,2.7-2.2,5-3.7,6.9c-1.5,1.9-3.2,3.3-5,4.2
			c7.5,21.8,14.3,43.8,20.5,66.1c-3.7-1.3-5.6-2-9.5-3.4c-6.3-20.8-13.1-41.4-20.7-61.8c-2.6-0.3-3.9-0.4-6.5-0.7
			c0.9,18.2,1.8,36.5,2.7,54.7c-3.7-1.1-5.6-1.6-9.5-2.7C307.1,115.3,305.1,77.7,303.1,40.2z M315.6,95c2.2,0.2,3.3,0.3,5.4,0.4
			c2.1,0.2,4-0.3,5.6-1.4c1.7-1.1,3.1-2.7,4.2-4.9c1.2-2.2,2-4.9,2.6-8.1c0.6-3.2,0.8-6.9,0.6-11c-0.2-3.8-0.6-7.2-1.2-10.3
			c-0.7-3.1-1.6-5.7-2.7-7.8c-1.1-2.1-2.4-3.7-3.9-4.8c-1.5-1.1-3.1-1.5-4.8-1.4c-3.3,0.3-5,0.5-8.3,0.8
			C314,62.6,314.8,78.8,315.6,95z"/>
		<path class="st0" d="M387.2,26.8c0,4,0,6,0,10c-8.8,1.6-13.5,2.4-23.5,4c0.3,16.7,0.7,33.4,1,50.2c6.5,0.3,9.5,0.4,15.4,0.6
			c0,3.9,0,5.8,0.1,9.7c-5.8-0.5-8.9-0.7-15.3-1.2c0.4,21,0.8,41.9,1.2,62.9c9.2,3.2,13.4,4.8,21.1,7.9c0,4,0,6,0,10
			c-9.3-4.2-18.8-7.9-28.3-11.6c-1.2-45.3-2.3-90.7-3.5-136C366,31.1,376.7,29.2,387.2,26.8z"/>
	</g>
</g>
</svg>
