<?xml version="1.0" encoding="utf-8"?>
<!-- Generator: Adobe Illustrator 23.0.1, SVG Export Plug-In . SVG Version: 6.00 Build 0)  -->
<svg version="1.1" xmlns="http://www.w3.org/2000/svg" xmlns:xlink="http://www.w3.org/1999/xlink" x="0px" y="0px"
	 viewBox="0 0 1920 1080" style="enable-background:new 0 0 1920 1080;" xml:space="preserve">
<style type="text/css">
	.st0{stroke:#FFFFFF;stroke-miterlimit:10;}
	.st1{fill:#FFFFFF;}
	.st2{fill:none;stroke:#000000;stroke-miterlimit:10;}
	.st3{font-family:'ArialMT';}
	.st4{font-size:48px;}
	.st5{fill:#0F0C0D;stroke:#FFFFFF;stroke-width:4;stroke-miterlimit:10;}
	.st6{fill:#100D0E;stroke:#FFFFFF;stroke-width:4;stroke-miterlimit:10;}
	.st7{fill:#110E0F;stroke:#FFFFFF;stroke-width:4;stroke-miterlimit:10;}
	.st8{fill:#141112;stroke:#FFFFFF;stroke-width:4;stroke-miterlimit:10;}
	.st9{fill:#201D1E;stroke:#FFFFFF;stroke-width:4;stroke-miterlimit:10;}
	.st10{fill:#1E1B1C;stroke:#FFFFFF;stroke-width:4;stroke-miterlimit:10;}
	.st11{fill:#1D1A1B;stroke:#FFFFFF;stroke-width:4;stroke-miterlimit:10;}
	.st12{fill:#1B1819;stroke:#FFFFFF;stroke-width:4;stroke-miterlimit:10;}
	.st13{fill:#1A1718;stroke:#FFFFFF;stroke-width:4;stroke-miterlimit:10;}
	.st14{fill:#1A1618;stroke:#FFFFFF;stroke-width:4;stroke-miterlimit:10;}
	.st15{fill:#1A1819;stroke:#FFFFFF;stroke-width:4;stroke-miterlimit:10;}
	.st16{fill:#191617;stroke:#FFFFFF;stroke-width:4;stroke-miterlimit:10;}
	.st17{fill:#181516;stroke:#FFFFFF;stroke-width:4;stroke-miterlimit:10;}
	.st18{fill:#181416;stroke:#FFFFFF;stroke-width:4;stroke-miterlimit:10;}
	.st19{fill:#171415;stroke:#FFFFFF;stroke-width:4;stroke-miterlimit:10;}
	.st20{fill:#171315;stroke:#FFFFFF;stroke-width:4;stroke-miterlimit:10;}
	.st21{fill:#151213;stroke:#FFFFFF;stroke-width:4;stroke-miterlimit:10;}
	.st22{fill:#161314;stroke:#FFFFFF;stroke-width:4;stroke-miterlimit:10;}
	.st23{font-size:78.2805px;}
</style>
<g id="Layer_2">
	<rect class="st0" width="1920" height="1080"/>
</g>
<g id="Layer_1">
	<g>
		<path class="st1" d="M519,922.5c-93.1,0-180.6-36.2-246.4-102.1S170.5,667.1,170.5,574s36.3-180.6,102.1-246.4
			S425.9,225.5,519,225.5s180.6,36.3,246.4,102.1S867.5,480.9,867.5,574s-36.3,180.6-102.1,246.4S612.1,922.5,519,922.5z"/>
		<path d="M519,226c47,0,92.6,9.2,135.5,27.3c41.4,17.5,78.7,42.6,110.6,74.6c32,32,57.1,69.2,74.6,110.6
			C857.8,481.4,867,527,867,574s-9.2,92.6-27.3,135.5c-17.5,41.4-42.6,78.7-74.6,110.6c-32,32-69.2,57.1-110.6,74.6
			C611.6,912.8,566,922,519,922s-92.6-9.2-135.5-27.3c-41.4-17.5-78.7-42.6-110.6-74.6c-32-32-57.1-69.2-74.6-110.6
			C180.2,666.6,171,621,171,574s9.2-92.6,27.3-135.5c17.5-41.4,42.6-78.7,74.6-110.6c32-32,69.2-57.1,110.6-74.6
			C426.4,235.2,472,226,519,226 M519,225c-192.7,0-349,156.3-349,349s156.3,349,349,349s349-156.3,349-349S711.7,225,519,225
			L519,225z"/>
	</g>
	<g>
		<line class="st2" x1="217.1" y1="748.3" x2="820.9" y2="399.7"/>
	</g>
	<g>
		<line class="st2" x1="169.6" y1="574.5" x2="868.5" y2="573.5"/>
	</g>
	<g>
		<line class="st2" x1="519" y1="922.6" x2="519" y2="225.4"/>
	</g>
	<g>
		<line class="st2" x1="344.7" y1="875.9" x2="693.3" y2="272.1"/>
	</g>
	<g>
		<line class="st2" x1="693.3" y1="875.9" x2="344.7" y2="272.1"/>
	</g>
	<g>
		<line class="st2" x1="820.9" y1="748.3" x2="217.1" y2="399.7"/>
	</g>
	<g>
		<circle class="st1" cx="519" cy="574" r="199.5"/>
		<path d="M519,375c26.9,0,52.9,5.3,77.5,15.6c23.7,10,45,24.4,63.3,42.6c18.3,18.3,32.6,39.6,42.6,63.3
			C712.8,521,718,547.1,718,574s-5.3,52.9-15.6,77.5c-10,23.7-24.4,45-42.6,63.3s-39.6,32.6-63.3,42.6
			C571.9,767.7,545.9,773,519,773s-52.9-5.3-77.5-15.6c-23.7-10-45-24.4-63.3-42.6s-32.6-39.6-42.6-63.3
			C325.3,626.9,320,600.9,320,574s5.3-52.9,15.6-77.5c10-23.7,24.4-45,42.6-63.3c18.3-18.3,39.6-32.6,63.3-42.6
			C466.1,380.3,492.1,375,519,375 M519,374c-110.5,0-200,89.5-200,200s89.5,200,200,200s200-89.5,200-200S629.5,374,519,374L519,374
			z"/>
	</g>
	<text transform="matrix(1 0 0 1 428.5674 550.0908)" class="st3 st4">Selected </text>
	<text transform="matrix(1 0 0 1 451.5674 607.6908)" class="st3 st4">Zodiac</text>
	<g>
		<path class="st5" d="M1299.8,807c2.2-4.8,5.5-3.8,9.6-2.8c58.4,15.2,116.9,30.2,175.4,45.3c6.6,1.7,13.2,3.2,19.6,5.2
			c1.6,0.5,5.7-0.7,4.9,2.9c-0.8,3.8-3.8,3.1-7,2.2c-14.2-3.9-28.5-7.5-42.8-11.1c-52.5-13.6-105-27.1-157.4-40.7
			C1301.3,807.8,1300.6,807.4,1299.8,807z"/>
		<path class="st6" d="M1284.1,425c47.8,26.3,94.7,52.2,141.6,78c10,5.5,20.1,10.9,30,16.6c1.1,0.6,5.2,0.3,2.8,3.6
			c-1.5,2.1-3,2.7-5.8,1.1c-9.4-5.4-19-10.5-28.5-15.7c-44.4-24.4-88.7-48.9-133.2-73.3C1287.3,433.2,1284,431.1,1284.1,425z"/>
		<path class="st6" d="M1539.2,751c-2.1,5.6-5.7,3.8-9.3,2.3c-48.5-20.2-97-40.5-145.5-60.6c-3.8-1.6-8-2.7-7.3-8.9
			C1431.4,706.2,1485.3,728.6,1539.2,751z"/>
		<path class="st6" d="M1240.6,645.8c-5.6,1.7-8.4-0.2-11.3-3.1c-29.5-29.9-59.1-59.7-88.9-89.4c-3.2-3.2-3.2-6.3-2.7-11
			C1172.1,576.9,1206.1,611.1,1240.6,645.8z"/>
		<path class="st6" d="M1585.9,632.2c-5.4,2.2-8.2,0.2-11.2-2.6c-27.6-25.3-55.4-50.4-82.9-75.7c-1.6-1.4-6.5-2.5-2.7-6.3
			c3.5-3.5,4.6,0.9,6,2.1C1525.2,576.9,1555.2,604.3,1585.9,632.2z"/>
		<path class="st7" d="M1280.2,786.4c-11.1-39.5-21.9-78.1-32.9-117.3c5.8,0,7,3.3,7.9,6.4c9.6,33.9,19.1,67.7,28.6,101.6
			C1284.7,780.5,1285,783.7,1280.2,786.4z"/>
		<path class="st6" d="M1350.8,315.3c-1.1,1.5-2,2.9-2.9,4.3c-21,29-42,58-63,86.9c-1.4,1.9-2.6,5.4-6,3.4c-3.7-2.2-0.1-4.5,1.2-6.2
			c21-29.3,42.2-58.5,63.3-87.7c1.1-1.5,1.8-4,4.2-3.9C1348.7,312.1,1349.6,314,1350.8,315.3z"/>
		<path class="st6" d="M1128.9,394.9c3.6-4.7,7.4-4.1,11.2-3.4c35,7.1,70,14.3,105,21.4c0.6,0.1,1.2,0.4,1.7,0.4
			c3.2-0.2,4.3,1.7,4,4.1c-0.6,4.2-3.9,1.3-5.3,1c-23.5-4.6-46.9-9.4-70.3-14.2C1159.9,401.3,1144.6,398.1,1128.9,394.9z"/>
		<path class="st7" d="M1603.5,569.5c-0.7,4.6-4.8,0.5-6.4,0.1c-26.4-7.3-52.7-14.9-79-22.4c-7.4-2.1-14.8-3.9-22.1-6.4
			c-2.6-0.9-8.1-0.2-6.9-4.4c1.1-4,5.3-1.7,8.4-0.8c8.5,2.5,17,4.8,25.5,7.2c25.5,7.3,50.9,14.6,76.4,21.9
			C1601.4,565.3,1604.5,564.6,1603.5,569.5z"/>
		<path class="st7" d="M1198.8,494.1c-0.9-0.6-2-0.9-2.2-1.5c-0.6-1.7-0.1-3.2,1.4-4.5c3.8-3.5,7.5-7.2,11.2-10.8
			c14.1-13.7,28.1-27.5,42.3-41.1c1.2-1.1,2-5.2,5.1-2.1c1.9,1.9,1.2,3.8-0.8,5.7c-17.9,17.3-35.6,34.7-53.5,52
			C1201.5,492.7,1200.1,493.3,1198.8,494.1z"/>
		<path class="st7" d="M1344.5,678.8c-26.2-5.3-51.3-10.3-76.3-15.7c-1.9-0.4-6.5,0.5-5.3-3.5c0.8-2.6,3.8-2.4,6.8-1.8
			c23,4.9,46.1,9.7,69.2,14.1C1343.3,672.7,1343.5,675.3,1344.5,678.8z"/>
		<path class="st8" d="M1088.7,595.7c-2.8-4.3-2.3-7.5,0.2-11.3c6.4-9.8,12.3-19.9,18.3-29.9c1.4-2.3,2.9-4.6,6-2.9
			c3.2,1.8,0.2,3.8-0.7,5.3C1104.7,569.8,1096.7,582.6,1088.7,595.7z"/>
		<path class="st9" d="M1580.1,639.7c9.4-1.1,9.4-1.1,12.5-9.8c3,4.8,3.5,12.5,13.6,8.7c-5.8,4.2-9.3,7.9-5.1,14.6
			c-5.9-4.1-11.1-4.1-16.4,1C1587.3,648,1588.1,642.8,1580.1,639.7z"/>
		<path class="st10" d="M1049.3,503.5c9.5,2.8,12.5-1.4,13.8-9.1c2.4,6.8,4.4,12.4,14.6,8.8c-5.6,5.4-10.7,9.2-5.4,16.5
			c-8.7-4.7-8.7-4.7-16.5-0.7C1057.4,510.9,1057.4,510.9,1049.3,503.5z"/>
		<path class="st11" d="M1181.9,513.9c3.3-6.6,0.7-10.6-7.1-14.4c8.4,0,14.6-0.1,14.5-9.4c1.7,8,5.7,10.6,13.3,9.2
			c-5.9,4.1-8.6,8.8-4.6,15.6C1192.7,510.1,1187.7,508.8,1181.9,513.9z"/>
		<path class="st10" d="M1278.7,431c-5.6-5-10.4-4.7-15.6,0.4c2.5-6.4,1.2-11.4-5.3-15.1c8,1.4,11.5-2.1,12.5-10.8
			c2.2,8,5,12.6,13.4,10.6C1278.8,420.1,1274.6,424,1278.7,431z"/>
		<path class="st12" d="M1693.2,555.4c-6.7,3.7-8.5,8.3-4.8,14.9c-5.5-3.8-10.4-6.4-15.8,0.2c2.6-6.8,0.4-11.4-5.6-15.1
			c7.4,0.8,12-1.2,12.9-8.8C1681.7,553.4,1685.5,556.8,1693.2,555.4z"/>
		<path class="st13" d="M1485.8,544.4c-9.8-6.4-9.8-6.4-17.5-1.4c1.5-6.1,2.1-11.5-5.5-14.7c7.5,0.5,12-2.1,13.5-9.3
			c0.6,8.1,5.9,9.5,13.1,9.1C1482.6,531.7,1480.5,536.4,1485.8,544.4z"/>
		<path class="st14" d="M1569.4,757.5c-5.7,3.6-9.1,7.6-5.7,14.6c-5.6-5.4-10.5-4.5-15.8,0.5c3.6-6.8,1.9-11.4-6.4-14.9
			c4.8-0.5,8-0.4,10.7-1.4c2.8-1,1-5.4,4.8-7.5C1557.2,756.8,1562.4,758,1569.4,757.5z"/>
		<path class="st15" d="M1067.2,601.6c9.6-1,9.6-1,14-9.7c0.9,7.8,5.3,10.2,12.8,9.1c-5.3,4-10.6,7.7-4.3,15.1
			c-5.9-3.3-11-6.8-17.3,2.2C1074.2,610,1076.3,604,1067.2,601.6z"/>
		<path class="st16" d="M1520.1,875.9c3.3-6.5,2.3-11.2-5.1-14.5c7.5,0.3,12.5-1.8,13.3-9.6c1.3,7.3,5.5,10.2,13.4,9.2
			c-6.3,3.7-9.1,8.1-5.2,15C1530.9,870.8,1525.8,871,1520.1,875.9z"/>
		<path class="st17" d="M1348.7,293.5c8.4,1.8,11.2-2.8,13.3-9c0.5,8.1,5.7,9.5,13,9.1c-6.1,3.5-9.4,7.6-4.8,14.4
			c-5.6-3.5-10.8-6-16,0.5C1356.1,302.1,1355.7,297,1348.7,293.5z"/>
		<path class="st18" d="M1262.5,652c-6.6,3.5-8.7,7.9-4.9,14.7c-5.8-5.1-10.9-4.9-17.5,2.5c3.4-8.5,4.7-14.2-4.6-16.9
			c7.9,0.2,13.4-1,13.4-9.8C1251.3,649.1,1253.9,653.8,1262.5,652z"/>
		<path class="st19" d="M1272.9,798.2c8,0.8,12.6-1.2,13.5-8.9c2.2,6.2,5.1,10.6,15,7.4c-6.1,5.3-11.7,8.8-6.2,16
			c-5.7-4.1-10.8-5.5-16,0.5C1281.3,806.6,1281.3,801.1,1272.9,798.2z"/>
		<path class="st17" d="M1631.8,584.2c-8.6-4.3-8.6-4.3-16.8,1c1.9-5.8,4.4-11.5-4.2-14.6c7.1-0.3,12.3-1.9,10.9-12.3
			c4.2,7.4,5.4,14.3,14.5,11.6C1630,573.4,1628.4,577.9,1631.8,584.2z"/>
		<path class="st20" d="M1372,690.2c-5.7-4.5-10.8-6.3-16.3,0.5c2.4-6.7,3.1-11.9-5.2-14.8c7.7,0.2,12.8-1.7,12.6-10.1
			c3.1,5.5,3.8,12.8,13.7,9.1C1370.6,679.2,1368.1,683.7,1372,690.2z"/>
		<path class="st17" d="M1128.9,386.8c-8.5,3.4-6.1,8.9-3.2,15.8c-6.3-4.9-11-9-16.9-1.1c2.6-7.1,1.3-11.8-5.5-14.8
			c8,1.4,11.3-2.6,13.2-9.1C1118.2,383.9,1120.9,388.3,1128.9,386.8z"/>
		<path class="st21" d="M1136.2,523.5c11.5-5.6,22.4-11,33.4-16.4c2.3-1.1,4.9-3,6.7,0.4c1.9,3.5-2.1,3.5-3.7,4.4
			c-8.6,4.4-17.5,8.2-26,12.8C1142.9,526.6,1140.1,526.3,1136.2,523.5z"/>
		<path class="st22" d="M1122.4,521.6c2.5,5.8,4.5,10.8,12.8,8.9c-5.4,3.8-7.8,8-4.6,14.3c-6-5.2-10.9-3.8-16.6,2.3
			c1.8-7,5.7-13.2-4.6-16C1118,531.6,1121.7,528.5,1122.4,521.6z"/>
		<path class="st8" d="M1109.5,523.5c-3.5,2-5.6,3.9-9,2.4c-7-3-14.1-5.8-21.1-8.7c-2-0.8-3.8-2.2-2.8-4.5c1.2-2.6,3.3-1.4,5.2-0.6
			C1090.8,515.8,1099.7,519.5,1109.5,523.5z"/>
		<path class="st22" d="M1661.1,561.6c3-0.5,5.4-0.1,5.9,2c0.7,2.7-1.9,2.7-3.9,3.2c-5.1,1.2-10.1,2.6-15.2,3.9
			c-1.5,0.4-3.4,2.2-4.2-0.5c-0.6-1.9-0.5-4.1,2.2-4.8C1651.2,564,1656.6,562.7,1661.1,561.6z"/>
	</g>
	<text transform="matrix(0.9779 0 0 1 24.8267 130.521)" class="st1 st3 st23">ThreeJs rendering of constellations </text>
	<rect x="19" y="21" class="st2" width="1887" height="1044"/>
	<text transform="matrix(1 0 0 1 574.897 322.0815)" class="st3 st4">A</text>
	<text transform="matrix(1 0 0 1 695.8853 394.2334)" class="st3 st4">T</text>
	<text transform="matrix(1 0 0 1 758.9805 502.9805)" class="st3 st4">G</text>
	<text transform="matrix(1 0 0 1 756.7568 653.3809)" class="st3 st4">C</text>
	<text transform="matrix(1 0 0 1 694.6196 782.8018)" class="st3 st4">L</text>
	<text transform="matrix(1 0 0 1 576.4814 848.0498)" class="st3 st4">V</text>
	<text transform="matrix(1 0 0 1 438.0493 847.5684)" class="st3 st4">L</text>
	<text transform="matrix(1 0 0 1 306.7017 782.8398)" class="st3 st4">S</text>
	<text transform="matrix(1 0 0 1 243.3955 653.6699)" class="st3 st4">S</text>
	<text transform="matrix(1 0 0 1 230.9814 512.1729)" class="st3 st4">C</text>
	<text transform="matrix(1 0 0 1 311.98 386.8486)" class="st3 st4">A</text>
	<text transform="matrix(1 0 0 1 436.3203 322.1777)" class="st3 st4">P</text>
</g>
</svg>
